<?xml version="1.0" encoding="UTF-8" standalone="no"?>
<!-- Uploaded to: SVG Repo, www.svgrepo.com, Generator: SVG Repo Mixer Tools -->

<svg
   width="732.73767"
   height="733.37012"
   viewBox="0 0 43.96426 44.002207"
   version="1.1"
   id="svg1"
   sodipodi:docname="flower.svg"
   inkscape:version="1.3.2 (091e20ef0f, 2023-11-25)"
   xmlns:inkscape="http://www.inkscape.org/namespaces/inkscape"
   xmlns:sodipodi="http://sodipodi.sourceforge.net/DTD/sodipodi-0.dtd"
   xmlns="http://www.w3.org/2000/svg"
   xmlns:svg="http://www.w3.org/2000/svg"
   xmlns:rdf="http://www.w3.org/1999/02/22-rdf-syntax-ns#"
   xmlns:cc="http://creativecommons.org/ns#"
   xmlns:dc="http://purl.org/dc/elements/1.1/">
  <defs
     id="defs1" />
  <sodipodi:namedview
     id="namedview1"
     pagecolor="#ffffff"
     bordercolor="#000000"
     borderopacity="0.25"
     inkscape:showpageshadow="2"
     inkscape:pageopacity="0.0"
     inkscape:pagecheckerboard="0"
     inkscape:deskcolor="#d1d1d1"
     inkscape:zoom="0.85125"
     inkscape:cx="365.93245"
     inkscape:cy="367.1072"
     inkscape:window-width="1920"
     inkscape:window-height="919"
     inkscape:window-x="0"
     inkscape:window-y="48"
     inkscape:window-maximized="1"
     inkscape:current-layer="svg1" />
  <title
     id="title1">flower-solid</title>
  <g
     id="invisible_box"
     data-name="invisible box"
     transform="translate(-2.0378245,-1.9979163)">
    <rect
       width="48"
       height="48"
       fill="none"
       id="rect1"
       x="0"
       y="0" />
  </g>
  <g
     id="icons_Q2"
     data-name="icons Q2"
     transform="translate(-2.0378245,-1.9979163)"
     style="fill:#f56949;fill-opacity:1">
    <path
       d="m 43.5,24 0.3,-0.3 A 7.6,7.6 0 0 0 43.8,13 7.5,7.5 0 0 0 37.5,10.9 H 37 a 0.9,0.9 0 0 0 0.1,-0.5 3.1,3.1 0 0 0 0.1,-1 A 7.9,7.9 0 0 0 35,4.2 7.7,7.7 0 0 0 24.3,4.2 L 24,4.5 23.7,4.2 A 7.6,7.6 0 0 0 13,4.2 7.5,7.5 0 0 0 10.9,10.5 0.9,0.9 0 0 0 11,11 H 9.5 a 7.9,7.9 0 0 0 -5.3,2 7.7,7.7 0 0 0 0,10.7 L 4.5,24 4.2,24.3 a 7.7,7.7 0 0 0 0,10.7 7.9,7.9 0 0 0 5.3,2.2 H 11 a 0.9,0.9 0 0 0 -0.1,0.5 7.5,7.5 0 0 0 7.5,8.3 7.4,7.4 0 0 0 5.3,-2.2 l 0.3,-0.3 0.3,0.3 a 7.7,7.7 0 0 0 10.7,0 7.9,7.9 0 0 0 2.2,-5.3 3.1,3.1 0 0 0 -0.1,-1 A 0.9,0.9 0 0 0 37,37 h 0.5 A 7.5,7.5 0 0 0 46,29.6 7.4,7.4 0 0 0 43.8,24.3 Z M 24,32 a 8,8 0 1 1 8,-8 8,8 0 0 1 -8,8 z"
       id="path1"
       style="fill:#f56949;fill-opacity:1" />
  </g>
  <metadata
     id="metadata1">
    <rdf:RDF>
      <cc:Work
         rdf:about="">
        <dc:title>flower-solid</dc:title>
      </cc:Work>
    </rdf:RDF>
  </metadata>
</svg>
