<?xml version="1.0" encoding="iso-8859-1"?>
<!-- Uploaded to: SVG Repo, www.svgrepo.com, Generator: SVG Repo Mixer Tools -->
<svg height="800px" width="800px" version="1.1" id="Layer_1" xmlns="http://www.w3.org/2000/svg" xmlns:xlink="http://www.w3.org/1999/xlink" 
	 viewBox="0 0 512 512" xml:space="preserve">
<g>
	<path style="fill:#AEADB3;" d="M503.017,111.22h-49.7c-4.961,0-8.983-4.022-8.983-8.983c0-4.961,4.022-8.983,8.983-8.983h49.7
		c4.961,0,8.983,4.022,8.983,8.983C512,107.198,507.978,111.22,503.017,111.22z"/>
	<path style="fill:#AEADB3;" d="M58.683,111.22h-49.7c-4.961,0-8.983-4.022-8.983-8.983c0-4.961,4.022-8.983,8.983-8.983h49.7
		c4.961,0,8.983,4.022,8.983,8.983C67.665,107.198,63.643,111.22,58.683,111.22z"/>
</g>
<path style="fill:#FEA921;" d="M55.649,66.089c0.956,110.009,90.416,198.897,200.651,198.897S455.994,176.098,456.95,66.089H55.649z
	"/>
<path style="fill:#E58200;" d="M428.039,66.089c-0.914,105.157-82.7,191.007-186.196,198.375c4.775,0.34,9.593,0.522,14.456,0.522
	c110.235,0,199.695-88.888,200.651-198.897H428.039z"/>
<path style="fill:#FEA921;" d="M474.067,35.899H38.533c-8.337,0-15.094,6.758-15.094,15.094l0,0c0,8.337,6.758,15.094,15.094,15.094
	h435.534c8.337,0,15.094-6.758,15.094-15.094l0,0C489.161,42.658,482.403,35.899,474.067,35.899z"/>
<g>
	<path style="fill:#FB0125;" d="M108.985,1.034L108.985,1.034c-19.182,0-34.733,15.551-34.733,34.733l0,0h69.465l0,0
		C143.718,16.584,128.167,1.034,108.985,1.034z"/>
	<path style="fill:#FB0125;" d="M208.791,1.034L208.791,1.034c-19.182,0-34.733,15.551-34.733,34.733l0,0h69.465l0,0
		C243.524,16.584,227.974,1.034,208.791,1.034z"/>
	<path style="fill:#FB0125;" d="M308.598,1.034L308.598,1.034c-19.182,0-34.733,15.551-34.733,34.733l0,0h69.465l0,0
		C343.331,16.584,327.78,1.034,308.598,1.034z"/>
	<path style="fill:#FB0125;" d="M408.404,1.034L408.404,1.034c-19.182,0-34.733,15.551-34.733,34.733l0,0h69.465l0,0
		C443.137,16.584,427.586,1.034,408.404,1.034z"/>
</g>
<g>
	<path style="fill:#CC111E;" d="M408.404,1.034c-5.161,0-10.053,1.134-14.456,3.152c11.964,5.485,20.277,17.558,20.277,31.58h28.911
		C443.137,16.584,427.586,1.034,408.404,1.034z"/>
	<path style="fill:#CC111E;" d="M308.598,1.034c-5.161,0-10.053,1.134-14.456,3.152c11.964,5.485,20.277,17.558,20.277,31.58h28.911
		C343.331,16.584,327.78,1.034,308.598,1.034z"/>
	<path style="fill:#CC111E;" d="M208.791,1.034c-5.161,0-10.053,1.134-14.456,3.152c11.964,5.485,20.277,17.558,20.277,31.58h28.911
		C243.524,16.584,227.974,1.034,208.791,1.034z"/>
	<path style="fill:#CC111E;" d="M108.985,1.034c-5.161,0-10.053,1.134-14.456,3.152c11.964,5.485,20.277,17.558,20.277,31.58h28.911
		C143.718,16.584,128.167,1.034,108.985,1.034z"/>
</g>
<g>
	<path style="fill:#E58200;" d="M460.506,66.089h13.561c7.953,0,14.454-6.154,15.037-13.957l-0.01-2.467
		c-0.674-7.713-7.139-13.766-15.027-13.766h-13.759L460.506,66.089z"/>
	<path style="fill:#E58200;" d="M57.92,94.555h382.64V66.089H55.649C55.733,75.758,56.515,85.259,57.92,94.555z"/>
</g>
<path style="fill:#FCB349;" d="M172.196,148.583c-8.252-8.186-15.497-17.124-21.668-26.659c-3.964-6.124-10.849-9.729-18.145-9.729
	h-1.906c-16.334,0-26.628,17.467-18.843,31.827c7.335,13.531,16.698,26.059,27.925,37.196c16.43,16.298,35.807,28.571,56.918,36.327
	c14.01,5.148,28.866-5.264,28.866-20.19l0,0c0-8.197-4.687-15.634-12.026-19.284C198.311,170.61,184.433,160.722,172.196,148.583z"
	/>
<g>
	<path style="fill:#AEADB3;" d="M247.42,379.97l-116.211-37.927l29.463-101.273c-5.363-2.913-10.579-6.064-15.633-9.438
		c-0.402,0.661-0.733,1.379-0.959,2.157l-32.164,110.559c-0.152,0.327-0.292,0.662-0.407,1.013
		c-0.178,0.546-0.296,1.096-0.366,1.646L69.313,490.49c-1.386,4.764,1.352,9.749,6.115,11.135c0.838,0.243,1.683,0.359,2.514,0.359
		c3.892,0,7.479-2.55,8.621-6.476l39.625-136.205l121.231,39.565L247.42,379.97L247.42,379.97z"/>
	<path style="fill:#AEADB3;" d="M443.492,490.49l-41.829-143.78c-0.072-0.552-0.189-1.105-0.369-1.654
		c-0.114-0.35-0.254-0.683-0.405-1.007L368.725,233.49c-0.238-0.818-0.588-1.57-1.019-2.259c-5.045,3.374-10.247,6.53-15.601,9.445
		l29.492,101.375l-116.413,38.059v19.089l121.435-39.887l39.623,136.199c1.143,3.926,4.728,6.476,8.621,6.476
		c0.83,0,1.676-0.116,2.514-0.359C442.139,500.239,444.877,495.254,443.492,490.49z"/>
	<path style="fill:#AEADB3;" d="M256.299,510.966c-4.961,0-8.983-4.022-8.983-8.983V339.545c0-4.961,4.022-8.983,8.983-8.983
		s8.983,4.022,8.983,8.983v162.439C265.282,506.945,261.26,510.966,256.299,510.966z"/>
	<path style="fill:#AEADB3;" d="M256.299,315.286c-4.961,0-8.983-4.022-8.983-8.983v-87.424c0-4.961,4.022-8.983,8.983-8.983
		s8.983,4.022,8.983,8.983v87.424C265.282,311.264,261.26,315.286,256.299,315.286z"/>
</g>
</svg>