<?xml version="1.0" encoding="UTF-8" standalone="no"?>
<!-- Uploaded to: SVG Repo, www.svgrepo.com, Generator: SVG Repo Mixer Tools -->

<svg
   width="641.00708"
   height="800"
   viewBox="-5.23 0 42.010002 52.43"
   version="1.1"
   id="svg10"
   sodipodi:docname="grillades.svg"
   inkscape:version="1.3.2 (091e20ef0f, 2023-11-25)"
   xmlns:inkscape="http://www.inkscape.org/namespaces/inkscape"
   xmlns:sodipodi="http://sodipodi.sourceforge.net/DTD/sodipodi-0.dtd"
   xmlns="http://www.w3.org/2000/svg"
   xmlns:svg="http://www.w3.org/2000/svg">
  <sodipodi:namedview
     id="namedview10"
     pagecolor="#ffffff"
     bordercolor="#000000"
     borderopacity="0.25"
     inkscape:showpageshadow="2"
     inkscape:pageopacity="0.0"
     inkscape:pagecheckerboard="0"
     inkscape:deskcolor="#d1d1d1"
     inkscape:zoom="1.2038493"
     inkscape:cx="298.62542"
     inkscape:cy="399.13634"
     inkscape:window-width="1920"
     inkscape:window-height="919"
     inkscape:window-x="0"
     inkscape:window-y="48"
     inkscape:window-maximized="1"
     inkscape:current-layer="svg10" />
  <defs
     id="defs1">
    <style
       id="style1">.cls-1{fill:#ff6368;}.cls-2{fill:#d34a5b;}.cls-3{fill:#354251;}</style>
  </defs>
  <g
     data-name="Layer 1"
     id="Layer_1-2"
     transform="translate(-5.21)">
    <g
       id="bbg">
      <path
         class="cls-1"
         d="M 21,34.71 A 16,16 0 0 0 37,18.77 H 5 a 15.94,15.94 0 0 0 16,15.94 z"
         id="path1" />
      <path
         class="cls-2"
         d="M 15.51,18.77 H 5 C 4.8,29.54 16.11,37.51 26.18,33.83 A 15.93,15.93 0 0 1 15.51,18.77 Z"
         id="path2" />
      <path
         class="cls-3"
         d="M 21,36.07 A 17.32,17.32 0 0 1 3.7,18.77 1.36,1.36 0 0 1 5,17.41 H 36.93 A 1.36,1.36 0 0 1 38.29,18.77 17.33,17.33 0 0 1 21,36.07 Z M 6.47,20.13 c 2.12,17.53 26.91,17.52 29,0 z"
         id="path3" />
      <path
         class="cls-3"
         d="M 40.63,23.85 H 1.34 a 1.36,1.36 0 0 1 0,-2.72 h 39.29 a 1.36,1.36 0 0 1 0,2.72 z"
         id="path4" />
      <path
         class="cls-3"
         d="m 5.31,52.43 a 1.37,1.37 0 0 1 -1.2,-2 l 9.22,-17.6 a 1.36,1.36 0 0 1 2.41,1.26 L 6.52,51.7 a 1.38,1.38 0 0 1 -1.21,0.73 z"
         id="path5" />
      <path
         class="cls-3"
         d="M 36.66,52.43 A 1.37,1.37 0 0 1 35.45,51.7 L 26.22,34.1 a 1.36,1.36 0 0 1 2.41,-1.26 l 9.23,17.6 a 1.37,1.37 0 0 1 -1.2,1.99 z"
         id="path6" />
      <path
         class="cls-3"
         d="M 30.62,42.28 H 11.35 a 1.36,1.36 0 0 1 0,-2.72 h 19.27 a 1.36,1.36 0 0 1 0,2.72 z"
         id="path7" />
      <path
         class="cls-3"
         d="m 13.29,15.29 a 1.36,1.36 0 0 1 -1.36,-1.36 c 0,-0.24 0,-0.3 -0.36,-0.65 a 3.43,3.43 0 0 1 0,-5 c 0.32,-0.35 0.36,-0.41 0.36,-0.65 0,-0.24 0,-0.29 -0.36,-0.64 a 3.43,3.43 0 0 1 0,-5 C 11.89,1.64 11.93,1.58 11.93,1.34 A 1.36,1.36 0 0 1 13.29,0 c 2.32,0.21 1.16,3.18 0.28,3.86 -0.33,0.34 -0.37,0.4 -0.37,0.64 0,0.24 0,0.3 0.37,0.65 a 3.44,3.44 0 0 1 0,5 c -0.33,0.35 -0.37,0.41 -0.37,0.65 0,0.24 0,0.29 0.37,0.64 0.87,0.66 2.04,3.64 -0.28,3.85 z"
         id="path8" />
      <path
         class="cls-3"
         d="m 21.71,15.29 a 1.36,1.36 0 0 1 -1.36,-1.36 c 0,-0.24 0,-0.3 -0.37,-0.65 a 3.44,3.44 0 0 1 0,-5 c 0.33,-0.35 0.37,-0.41 0.37,-0.65 0,-0.24 0,-0.29 -0.37,-0.64 a 3.44,3.44 0 0 1 0,-5 C 20.31,1.64 20.35,1.58 20.35,1.34 A 1.36,1.36 0 0 1 21.71,0 C 24,0.21 22.86,3.18 22,3.86 21.68,4.2 21.64,4.26 21.64,4.5 c 0,0.24 0,0.3 0.36,0.65 a 3.42,3.42 0 0 1 0,5 c -0.32,0.35 -0.36,0.41 -0.36,0.65 0,0.24 0,0.29 0.36,0.64 0.86,0.66 2,3.64 -0.29,3.85 z"
         id="path9" />
      <path
         class="cls-3"
         d="m 30.13,15.29 a 1.36,1.36 0 0 1 -1.36,-1.36 c 0,-0.24 0,-0.3 -0.37,-0.65 a 3.44,3.44 0 0 1 0,-5 c 0.33,-0.35 0.37,-0.41 0.37,-0.65 0,-0.24 0,-0.29 -0.37,-0.64 a 3.44,3.44 0 0 1 0,-5 C 28.73,1.64 28.77,1.58 28.77,1.34 A 1.36,1.36 0 0 1 30.13,0 c 2.31,0.21 1.15,3.18 0.27,3.86 -0.32,0.34 -0.36,0.4 -0.36,0.64 0,0.24 0,0.3 0.36,0.65 a 3.44,3.44 0 0 1 0,5 c -0.32,0.35 -0.36,0.41 -0.36,0.65 0,0.24 0,0.29 0.36,0.64 0.88,0.66 2.04,3.64 -0.27,3.85 z"
         id="path10" />
    </g>
  </g>
</svg>
