<?xml version="1.0" encoding="UTF-8" standalone="no"?>
<!-- Uploaded to: SVG Repo, www.svgrepo.com, Generator: SVG Repo Mixer Tools -->

<svg
   width="135.00186"
   height="156.05566"
   viewBox="0 0 172.80238 199.75125"
   class="icon"
   version="1.1"
   id="svg1"
   sodipodi:docname="leaf.svg"
   inkscape:version="1.3.2 (091e20ef0f, 2023-11-25)"
   xmlns:inkscape="http://www.inkscape.org/namespaces/inkscape"
   xmlns:sodipodi="http://sodipodi.sourceforge.net/DTD/sodipodi-0.dtd"
   xmlns="http://www.w3.org/2000/svg"
   xmlns:svg="http://www.w3.org/2000/svg">
  <defs
     id="defs1" />
  <sodipodi:namedview
     id="namedview1"
     pagecolor="#ffffff"
     bordercolor="#000000"
     borderopacity="0.25"
     inkscape:showpageshadow="2"
     inkscape:pageopacity="0.0"
     inkscape:pagecheckerboard="0"
     inkscape:deskcolor="#d1d1d1"
     inkscape:zoom="0.425625"
     inkscape:cx="-849.33921"
     inkscape:cy="-139.79442"
     inkscape:window-width="1920"
     inkscape:window-height="919"
     inkscape:window-x="0"
     inkscape:window-y="48"
     inkscape:window-maximized="1"
     inkscape:current-layer="svg1" />
  <path
     d="m 69.900329,78.929558 c -11.39157,-4.88243 -38.92369,-49.13705 -46.23703,-44.27248 -7.31335,4.86456 -10.93365,25.52446 0.0781,38.26213 11.01177,12.73766 35.55659,21.66497 41.3534,28.941722 5.7968,7.27676 4.96984,12.7466 3.59875,14.11574 -1.37108,1.36914 -49.49639,-27.257662 -61.5721604,-22.002232 -12.07577,5.25543 -7.65274996,18.915532 4.7301104,29.602842 12.38285,10.68731 51.65941,7.44203 59.35526,12.21503 7.69584,4.77299 8.81372,12.28426 5.51935,12.28426 -3.29437,0 -39.29542,-7.23208 -51.92609,-5.39391 -12.63067,1.83817 -18.3843704,8.90944 0.0323,16.39838 18.4167,7.48893 48.5563,1.98111 53.67968,6.30071 5.12338,4.31959 1.8317,6.37441 -2.01218,6.6067 -3.84388,0.23228 -29.6682,-1.09665 -38.72975,0.0536 -9.06154,1.15026 1.67278,12.52325 6.34901,15.47817 4.67623,2.95493 21.70838,4.29726 26.65128,3.60711 4.94291,-0.69015 9.87773,-5.93665 13.73777,-4.57421 3.86005,1.36243 0.84582,10.24731 2.22229,11.83756 1.37647,1.59026 12.63875,2.03249 14.276511,-0.0201 1.63776,-2.05259 -2.763721,-8.42254 -0.0242,-11.39086 2.73947,-2.96833 8.79487,2.49259 17.85372,-0.25239 9.05885,-2.74497 29.36112,-15.75736 29.89986,-23.2731 0.53873,-7.51573 -35.69667,6.20021 -45.03566,5.98579 -6.594131,-0.8934 -9.349761,-4.77076 -5.233821,-6.82558 4.115941,-2.05483 61.504821,-12.38477 65.879361,-21.50193 4.37454,-9.11716 1.07747,-7.74579 -5.78334,-7.73462 -6.8608,0.0112 -46.94278,13.95939 -51.07488,8.49848 -4.13211,-5.46092 54.07295,-20.10153 60.07986,-32.18478 6.00691,-12.083242 7.91134,-26.659082 -0.0593,-28.470452 -7.9706,-1.81137 -39.76412,30.804462 -52.40287,29.227612 -12.63875,-1.57685 -0.28553,-4.78193 5.19611,-10.720812 5.48164,-5.93888 35.65356,-26.91594 35.91215,-34.43168 0.2586,-7.51573 2.71523,-15.03593 -7.44802,-15.93157 -10.16326,-0.89563 -34.82122,30.3399 -40.32172,27.61279 -5.50049,-2.7271 14.24688,-17.55756 17.23956,-32.13787 2.99268,-14.5803 -6.92814,-29.60284 -12.42056,-28.67817 -5.49242,0.92467 -5.21766,0.91797 -5.20958,5.01868 0.008,4.10071 2.78257,17.76081 -0.49833,25.50883 -3.2809,7.74802 -3.5395,13.44122 -6.28975,12.07879 -2.750241,-1.36244 -2.766411,-9.78945 -1.13134,-16.39615 1.63506,-6.6067 6.27628,-20.7336 3.52064,-25.05766 C 100.89918,12.989868 95.369059,-3.6296222 74.501109,0.71900781 53.633159,5.0676378 55.039259,20.789258 56.992179,31.262148 c 1.95292,10.4729 7.45342,18.66538 12.14581,28.68041 4.69239,10.01502 5.84798,21.1669 0.76231,18.987 z"
     fill="#5ab286"
     id="path1"
     style="fill:#f56949;fill-opacity:1;stroke-width:0.245282" />
</svg>
